<svg xmlns="http://www.w3.org/2000/svg" width="24" height="24" viewBox="0 0 24 24">
  <path d="M 18.879592,5.526233 C 17.152936,3.7995771 14.630708,2.4736223 11.999046,2.4736223 6.7357223,2.4736223 2.4845763,6.7366763 2.4845763,12 c 0,5.263324 4.251146,9.526378 9.5144697,9.526378 4.441674,0 8.145053,-3.036533 9.204862,-7.144784 H 18.72705 c -0.976453,2.774558 -3.620023,4.763189 -6.728004,4.763189 -3.9415388,0 -7.1447833,-3.203244 -7.1447833,-7.144783 0,-3.9415388 3.2032445,-7.1447833 7.1447833,-7.1447833 1.976723,0 4.298425,1.1267349 5.584486,2.4247039 l 0.805433,1.4769341 0.770838,1.5230663 1.958841,0.02081 -0.846616,-2.7407485 z"/>
  <path d="M 7.0108394,16.784493 12.966118,12.16973 7.0108394,7.5549656 Z M 13.316429,7.5549656 v 9.2295274 l 5.955275,-4.614763 z"/>
  <path d="M0 0h24v24H0z" fill="none" />
</svg>
